<svg xmlns="http://www.w3.org/2000/svg" width="55.607" height="55.599" viewBox="0 0 55.607 55.599">
  <path id="ccvv-01" d="M0,29.433V26.175a3.791,3.791,0,0,0,.092-.468,25.713,25.713,0,0,1,3.179-10.95C8.392,5.653,16.2.695,26.636.053a25.467,25.467,0,0,1,14.154,3.2C49.94,8.35,54.905,16.179,55.555,26.632a25.759,25.759,0,0,1-3.217,14.2A27.391,27.391,0,0,1,32.645,55.161c-1.061.2-2.143.3-3.216.439H26.171a2.872,2.872,0,0,0-.419-.088,25.653,25.653,0,0,1-9.744-2.547A27.447,27.447,0,0,1,.438,32.641C.231,31.583.143,30.5,0,29.433Zm20.85-1.643c0,2.785.008,5.57-.005,8.356a1.9,1.9,0,0,0,.895,1.845,1.849,1.849,0,0,0,2.038-.193q6.684-4.189,13.377-8.364a1.769,1.769,0,0,0,.023-3.246q-6.708-4.2-13.423-8.391a1.83,1.83,0,0,0-1.989-.193,1.871,1.871,0,0,0-.919,1.83c.012,2.785.005,5.57.005,8.356Z" transform="translate(0 -0.002)" fill="#fff"/>
</svg>
